<svg width="24" height="24" viewBox="0 0 24 24" fill="none" xmlns="http://www.w3.org/2000/svg">
<path d="M7.96096 4.8L3.98096 7.2V2.4L7.96096 0V4.8Z" fill="#624DE3"/>
<path d="M15.9221 9.59999V4.79999L19.9031 2.39999V7.19999L15.9221 9.59999Z" fill="#AB9FF4"/>
<path d="M7.96094 4.8V0L11.9419 2.4V7.2L7.96094 4.8Z" fill="#AB9FF4"/>
<path d="M19.9029 2.4L15.9219 4.8L11.9419 2.4L15.9219 0L19.9029 2.4Z" fill="#624DE3"/>
<path d="M15.9219 24V19.2L11.9419 16.8V21.6L15.9219 24Z" fill="#AB9FF4"/>
<path d="M3.981 16.8V12L0 9.60001V14.4L3.981 16.8Z" fill="#624DE3"/>
<path d="M15.9221 24V19.2L19.9031 16.8V21.6L15.9221 24Z" fill="#624DE3"/>
<path d="M7.961 9.6L3.981 12L0 9.6L3.981 7.2L7.961 9.6Z" fill="#AB9FF4"/>
<path d="M11.942 21.6L7.96096 24L3.98096 21.6L7.96096 19.2L11.942 21.6Z" fill="#624DE3"/>
<path d="M23.8831 14.4L19.9031 16.8L15.9221 14.4L19.9031 12L23.8831 14.4Z" fill="#AB9FF4"/>
<path d="M7.96096 19.2L3.98096 21.6V16.8L7.96096 14.4V19.2Z" fill="#AB9FF4"/>
<path d="M15.9219 14.4L11.9419 16.8L7.96094 14.4L11.9419 12L15.9219 14.4Z" fill="#624DE3"/>
<path d="M19.9031 12V7.2L23.8831 9.6V14.4L19.9031 12Z" fill="#624DE3"/>
<path d="M11.9419 12L7.96094 14.4V9.6L11.9419 7.2V12Z" fill="#8D7CF6"/>
<path d="M11.9419 12V7.2L15.9219 9.6V14.4L11.9419 12Z" fill="#AB9FF4"/>
</svg>
